<?xml version="1.0" encoding="UTF-8"?>
<!DOCTYPE svg PUBLIC "-//W3C//DTD SVG 1.1//EN" "http://www.w3.org/Graphics/SVG/1.1/DTD/svg11.dtd">
<svg xmlns="http://www.w3.org/2000/svg" version="1.1" width="119px" height="135px" style="shape-rendering:geometricPrecision; text-rendering:geometricPrecision; image-rendering:optimizeQuality; fill-rule:evenodd; clip-rule:evenodd" xmlns:xlink="http://www.w3.org/1999/xlink">
<g><path style="opacity:0.004" fill="#000000" d="M -0.5,2.5 C 0.833333,3.16667 0.833333,3.16667 -0.5,2.5 Z"/></g>
<g><path style="opacity:0.004" fill="#000000" d="M 60.5,3.5 C 61.8333,4.16667 61.8333,4.16667 60.5,3.5 Z"/></g>
<g><path style="opacity:0.004" fill="#000000" d="M 28.5,4.5 C 29.8333,5.16667 29.8333,5.16667 28.5,4.5 Z"/></g>
<g><path style="opacity:0.004" fill="#000000" d="M 89.5,5.5 C 90.8333,6.16667 90.8333,6.16667 89.5,5.5 Z"/></g>
<g><path style="opacity:0.004" fill="#000000" d="M 1.5,7.5 C 2.83333,8.16667 2.83333,8.16667 1.5,7.5 Z"/></g>
<g><path style="opacity:0.004" fill="#000000" d="M 100.5,7.5 C 101.833,8.16667 101.833,8.16667 100.5,7.5 Z"/></g>
<g><path style="opacity:0.004" fill="#000000" d="M 79.5,10.5 C 80.8333,11.1667 80.8333,11.1667 79.5,10.5 Z"/></g>
<g><path style="opacity:0.004" fill="#000000" d="M 110.5,11.5 C 111.833,12.1667 111.833,12.1667 110.5,11.5 Z"/></g>
<g><path style="opacity:0.004" fill="#000000" d="M 60.5,12.5 C 61.8333,13.1667 61.8333,13.1667 60.5,12.5 Z"/></g>
<g><path style="opacity:0.004" fill="#000000" d="M 104.5,14.5 C 105.833,15.1667 105.833,15.1667 104.5,14.5 Z"/></g>
<g><path style="opacity:0.004" fill="#000000" d="M 83.5,17.5 C 84.8333,18.1667 84.8333,18.1667 83.5,17.5 Z"/></g>
<g><path style="opacity:0.004" fill="#000000" d="M 110.5,17.5 C 111.833,18.1667 111.833,18.1667 110.5,17.5 Z"/></g>
<g><path style="opacity:0.004" fill="#000000" d="M 118.5,18.5 C 118.5,18.8333 118.5,19.1667 118.5,19.5C 117.83,19.0187 117.83,18.6853 118.5,18.5 Z"/></g>
<g><path style="opacity:0.004" fill="#000000" d="M 91.5,19.5 C 92.8333,20.1667 92.8333,20.1667 91.5,19.5 Z"/></g>
<g><path style="opacity:0.004" fill="#000000" d="M 5.5,20.5 C 6.83333,21.1667 6.83333,21.1667 5.5,20.5 Z"/></g>
<g><path style="opacity:0.004" fill="#000000" d="M 38.5,20.5 C 39.8333,21.1667 39.8333,21.1667 38.5,20.5 Z"/></g>
<g><path style="opacity:0.004" fill="#000000" d="M 26.5,23.5 C 27.8333,24.1667 27.8333,24.1667 26.5,23.5 Z"/></g>
<g><path style="opacity:0.004" fill="#000000" d="M 25.5,25.5 C 26.8333,26.1667 26.8333,26.1667 25.5,25.5 Z"/></g>
<g><path style="opacity:0.004" fill="#000000" d="M 52.5,25.5 C 53.8333,26.1667 53.8333,26.1667 52.5,25.5 Z"/></g>
<g><path style="opacity:0.004" fill="#000000" d="M 27.5,27.5 C 28.8333,28.1667 28.8333,28.1667 27.5,27.5 Z"/></g>
<g><path style="opacity:0.759" fill="#81985b" d="M 69.5,27.5 C 63.3466,28.3279 57.0133,28.8279 50.5,29C 49.6195,29.7083 48.9528,30.5416 48.5,31.5C 48.1667,31.5 47.8333,31.5 47.5,31.5C 47.5106,29.9826 48.1772,28.8159 49.5,28C 56.1583,27.5004 62.825,27.3337 69.5,27.5 Z"/></g>
<g><path style="opacity:0.004" fill="#000000" d="M 10.5,28.5 C 11.8333,29.1667 11.8333,29.1667 10.5,28.5 Z"/></g>
<g><path style="opacity:1" fill="#8cb15d" d="M 69.5,27.5 C 70.1667,27.5 70.5,27.8333 70.5,28.5C 70.5569,29.609 70.8902,30.609 71.5,31.5C 68.8877,30.6295 66.221,29.9628 63.5,29.5C 59.6999,29.5157 55.6999,29.6824 51.5,30C 50.7562,31.0386 49.7562,31.5386 48.5,31.5C 48.9528,30.5416 49.6195,29.7083 50.5,29C 57.0133,28.8279 63.3466,28.3279 69.5,27.5 Z"/></g>
<g><path style="opacity:0.004" fill="#000000" d="M 112.5,28.5 C 113.833,29.1667 113.833,29.1667 112.5,28.5 Z"/></g>
<g><path style="opacity:0.004" fill="#000000" d="M 20.5,29.5 C 21.8333,30.1667 21.8333,30.1667 20.5,29.5 Z"/></g>
<g><path style="opacity:1" fill="#88b45a" d="M 63.5,29.5 C 63.5,30.5 63.5,31.5 63.5,32.5C 60.2162,30.9693 57.8829,31.9693 56.5,35.5C 53.3353,34.7496 50.6687,33.4162 48.5,31.5C 49.7562,31.5386 50.7562,31.0386 51.5,30C 55.6999,29.6824 59.6999,29.5157 63.5,29.5 Z"/></g>
<g><path style="opacity:0.004" fill="#000000" d="M 110.5,29.5 C 111.833,30.1667 111.833,30.1667 110.5,29.5 Z"/></g>
<g><path style="opacity:1" fill="#89b456" d="M 63.5,29.5 C 66.221,29.9628 68.8877,30.6295 71.5,31.5C 71.7148,33.1788 71.0481,34.1788 69.5,34.5C 67.5,33.8333 65.5,33.1667 63.5,32.5C 63.5,31.5 63.5,30.5 63.5,29.5 Z"/></g>
<g><path style="opacity:0.004" fill="#000000" d="M 35.5,32.5 C 36.8333,33.1667 36.8333,33.1667 35.5,32.5 Z"/></g>
<g><path style="opacity:1" fill="#8aaf5e" d="M 47.5,31.5 C 47.8333,31.5 48.1667,31.5 48.5,31.5C 50.6687,33.4162 53.3353,34.7496 56.5,35.5C 57.8829,31.9693 60.2162,30.9693 63.5,32.5C 65.5,33.1667 67.5,33.8333 69.5,34.5C 68.1667,34.5 66.8333,34.5 65.5,34.5C 65.2627,35.791 65.596,36.791 66.5,37.5C 66.2852,39.1788 66.9519,40.1788 68.5,40.5C 68.5,40.8333 68.5,41.1667 68.5,41.5C 67.0413,41.5674 65.7079,41.2341 64.5,40.5C 64.5,38.8333 64.5,37.1667 64.5,35.5C 63.5,35.5 62.5,35.5 61.5,35.5C 61.5,36.8333 61.5,38.1667 61.5,39.5C 60.8485,38.9094 60.1818,38.2427 59.5,37.5C 58.8182,38.2427 58.1515,38.9094 57.5,39.5C 57.6309,38.6236 57.2975,37.9569 56.5,37.5C 55.9432,39.3316 54.9432,40.6649 53.5,41.5C 51.7163,42.7199 50.0496,42.7199 48.5,41.5C 50.1172,40.962 51.7839,40.6287 53.5,40.5C 53.5,38.8333 53.5,37.1667 53.5,35.5C 51.1667,35.5 48.8333,35.5 46.5,35.5C 46.2322,33.901 46.5655,32.5676 47.5,31.5 Z"/></g>
<g><path style="opacity:0.596" fill="#91a866" d="M 70.5,28.5 C 73.0047,30.1859 73.838,32.5193 73,35.5C 71.3963,36.6493 69.7297,36.6493 68,35.5C 66.9701,35.8361 66.4701,36.5028 66.5,37.5C 65.596,36.791 65.2627,35.791 65.5,34.5C 66.8333,34.5 68.1667,34.5 69.5,34.5C 71.0481,34.1788 71.7148,33.1788 71.5,31.5C 70.8902,30.609 70.5569,29.609 70.5,28.5 Z"/></g>
<g><path style="opacity:0.004" fill="#000000" d="M 76.5,34.5 C 77.8333,35.1667 77.8333,35.1667 76.5,34.5 Z"/></g>
<g><path style="opacity:0.004" fill="#000000" d="M 100.5,34.5 C 101.833,35.1667 101.833,35.1667 100.5,34.5 Z"/></g>
<g><path style="opacity:0.004" fill="#000000" d="M 113.5,35.5 C 114.833,36.1667 114.833,36.1667 113.5,35.5 Z"/></g>
<g><path style="opacity:0.004" fill="#000000" d="M 34.5,37.5 C 35.8333,38.1667 35.8333,38.1667 34.5,37.5 Z"/></g>
<g><path style="opacity:1" fill="#8ab261" d="M 61.5,39.5 C 61.5,39.8333 61.5,40.1667 61.5,40.5C 63.1478,42.8722 62.4811,44.2056 59.5,44.5C 58.8333,42.8333 58.1667,41.1667 57.5,39.5C 58.1515,38.9094 58.8182,38.2427 59.5,37.5C 60.1818,38.2427 60.8485,38.9094 61.5,39.5 Z"/></g>
<g><path style="opacity:1" fill="#8ab453" d="M 64.5,40.5 C 63.5,41.8333 62.5,41.8333 61.5,40.5C 61.5,40.1667 61.5,39.8333 61.5,39.5C 61.5,38.1667 61.5,36.8333 61.5,35.5C 62.5,35.5 63.5,35.5 64.5,35.5C 64.5,37.1667 64.5,38.8333 64.5,40.5 Z"/></g>
<g><path style="opacity:1" fill="#88b456" d="M 57.5,39.5 C 58.1667,41.1667 58.8333,42.8333 59.5,44.5C 61.0764,45.1429 62.4097,46.1429 63.5,47.5C 62.5,48.1667 61.5,48.8333 60.5,49.5C 59.5,49.5 58.5,49.5 57.5,49.5C 57.5923,45.9286 55.9257,44.7619 52.5,46C 53.3802,47.3561 53.7135,48.8561 53.5,50.5C 53.1667,50.5 52.8333,50.5 52.5,50.5C 51.5041,50.4142 50.6708,50.7476 50,51.5C 49.51,50.2068 49.3433,48.8734 49.5,47.5C 50.2323,46.1917 51.0656,44.8584 52,43.5C 52.3333,43.8333 52.6667,44.1667 53,44.5C 53.4828,43.552 53.6495,42.552 53.5,41.5C 54.9432,40.6649 55.9432,39.3316 56.5,37.5C 57.2975,37.9569 57.6309,38.6236 57.5,39.5 Z"/></g>
<g><path style="opacity:1" fill="#89b259" d="M 61.5,40.5 C 62.5,41.8333 63.5,41.8333 64.5,40.5C 65.7079,41.2341 67.0413,41.5674 68.5,41.5C 67.444,42.8765 66.1107,43.7098 64.5,44C 66.9574,45.1544 66.9574,46.4877 64.5,48C 65.056,48.3826 65.3893,48.8826 65.5,49.5C 64.1667,49.5 63.5,48.8333 63.5,47.5C 62.4097,46.1429 61.0764,45.1429 59.5,44.5C 62.4811,44.2056 63.1478,42.8722 61.5,40.5 Z"/></g>
<g><path style="opacity:0.004" fill="#000000" d="M 5.5,41.5 C 6.83333,42.1667 6.83333,42.1667 5.5,41.5 Z"/></g>
<g><path style="opacity:0.004" fill="#000000" d="M 8.5,41.5 C 9.83333,42.1667 9.83333,42.1667 8.5,41.5 Z"/></g>
<g><path style="opacity:0.004" fill="#000000" d="M 77.5,41.5 C 78.8333,42.1667 78.8333,42.1667 77.5,41.5 Z"/></g>
<g><path style="opacity:0.004" fill="#000000" d="M 86.5,41.5 C 87.8333,42.1667 87.8333,42.1667 86.5,41.5 Z"/></g>
<g><path style="opacity:0.769" fill="#8fa564" d="M 69.5,41.5 C 71.5824,41.472 73.4157,42.1387 75,43.5C 75.3333,43.1667 75.6667,42.8333 76,42.5C 76.6979,43.6906 77.5313,44.6906 78.5,45.5C 76.4352,45.4828 74.4352,45.1495 72.5,44.5C 71.3065,43.7281 70.3065,42.7281 69.5,41.5 Z"/></g>
<g><path style="opacity:0.004" fill="#000000" d="M 25.5,43.5 C 26.8333,44.1667 26.8333,44.1667 25.5,43.5 Z"/></g>
<g><path style="opacity:1" fill="#8cb458" d="M 48.5,41.5 C 50.0496,42.7199 51.7163,42.7199 53.5,41.5C 53.6495,42.552 53.4828,43.552 53,44.5C 52.6667,44.1667 52.3333,43.8333 52,43.5C 51.0656,44.8584 50.2323,46.1917 49.5,47.5C 48.4479,45.744 46.7812,45.0773 44.5,45.5C 45.6935,44.7281 46.6935,43.7281 47.5,42.5C 47.5,41.8333 47.8333,41.5 48.5,41.5 Z"/></g>
<g><path style="opacity:1" fill="#8ab556" d="M 68.5,40.5 C 69.1667,40.5 69.5,40.8333 69.5,41.5C 70.3065,42.7281 71.3065,43.7281 72.5,44.5C 72.5,44.8333 72.5,45.1667 72.5,45.5C 70.4012,46.3697 70.0679,47.703 71.5,49.5C 71.0431,50.2975 70.3764,50.6309 69.5,50.5C 68.1667,50.1667 66.8333,49.8333 65.5,49.5C 65.3893,48.8826 65.056,48.3826 64.5,48C 66.9574,46.4877 66.9574,45.1544 64.5,44C 66.1107,43.7098 67.444,42.8765 68.5,41.5C 68.5,41.1667 68.5,40.8333 68.5,40.5 Z"/></g>
<g><path style="opacity:0.004" fill="#000000" d="M 13.5,46.5 C 14.8333,47.1667 14.8333,47.1667 13.5,46.5 Z"/></g>
<g><path style="opacity:1" fill="#89b25e" d="M 60.5,49.5 C 60.5,49.8333 60.5,50.1667 60.5,50.5C 58.1667,50.5 55.8333,50.5 53.5,50.5C 53.7135,48.8561 53.3802,47.3561 52.5,46C 55.9257,44.7619 57.5923,45.9286 57.5,49.5C 58.5,49.5 59.5,49.5 60.5,49.5 Z"/></g>
<g><path style="opacity:1" fill="#88b45b" d="M 72.5,45.5 C 73.209,46.404 74.209,46.7373 75.5,46.5C 75.2852,48.1788 75.9519,49.1788 77.5,49.5C 76.8333,50.8333 75.8333,51.8333 74.5,52.5C 73.609,51.8902 72.609,51.5569 71.5,51.5C 70.5084,51.6716 69.8417,51.3382 69.5,50.5C 70.3764,50.6309 71.0431,50.2975 71.5,49.5C 70.0679,47.703 70.4012,46.3697 72.5,45.5 Z"/></g>
<g><path style="opacity:1" fill="#8bb35b" d="M 72.5,44.5 C 74.4352,45.1495 76.4352,45.4828 78.5,45.5C 78.5569,46.609 78.8902,47.609 79.5,48.5C 78.5084,48.3284 77.8417,48.6618 77.5,49.5C 75.9519,49.1788 75.2852,48.1788 75.5,46.5C 74.209,46.7373 73.209,46.404 72.5,45.5C 72.5,45.1667 72.5,44.8333 72.5,44.5 Z"/></g>
<g><path style="opacity:1" fill="#93b168" d="M 47.5,42.5 C 46.6935,43.7281 45.6935,44.7281 44.5,45.5C 43.8333,46.8333 42.8333,47.8333 41.5,48.5C 40.209,48.2627 39.209,48.596 38.5,49.5C 36.7772,51.2181 34.7772,52.5514 32.5,53.5C 36.6034,48.6145 41.6034,44.9479 47.5,42.5 Z"/></g>
<g><path style="opacity:1" fill="#89b45b" d="M 44.5,45.5 C 46.7812,45.0773 48.4479,45.744 49.5,47.5C 48.8501,47.1961 48.1835,46.8627 47.5,46.5C 46.5481,48.0453 46.2148,49.712 46.5,51.5C 45.8333,52.1667 45.1667,52.8333 44.5,53.5C 44.6716,52.5084 44.3382,51.8417 43.5,51.5C 43.2178,50.2223 42.5511,49.2223 41.5,48.5C 42.8333,47.8333 43.8333,46.8333 44.5,45.5 Z"/></g>
<g><path style="opacity:1" fill="#88b25b" d="M 49.5,47.5 C 49.3433,48.8734 49.51,50.2068 50,51.5C 50.6708,50.7476 51.5041,50.4142 52.5,50.5C 52.5,50.8333 52.5,51.1667 52.5,51.5C 50.8333,52.1667 49.1667,52.8333 47.5,53.5C 47.6716,52.5084 47.3382,51.8417 46.5,51.5C 46.2148,49.712 46.5481,48.0453 47.5,46.5C 48.1835,46.8627 48.8501,47.1961 49.5,47.5 Z"/></g>
<g><path style="opacity:0.004" fill="#000000" d="M 108.5,48.5 C 109.833,49.1667 109.833,49.1667 108.5,48.5 Z"/></g>
<g><path style="opacity:1" fill="#88b554" d="M 38.5,49.5 C 39.209,48.596 40.209,48.2627 41.5,48.5C 42.5511,49.2223 43.2178,50.2223 43.5,51.5C 42.4324,52.4345 41.099,52.7678 39.5,52.5C 39.7373,51.209 39.404,50.209 38.5,49.5 Z"/></g>
<g><path style="opacity:1" fill="#8bae60" d="M 63.5,47.5 C 63.5,48.8333 64.1667,49.5 65.5,49.5C 66.8333,49.8333 68.1667,50.1667 69.5,50.5C 69.8417,51.3382 70.5084,51.6716 71.5,51.5C 71.5,52.5 71.5,53.5 71.5,54.5C 69.847,54.3404 68.5137,53.6737 67.5,52.5C 67.3893,51.8826 67.056,51.3826 66.5,51C 64.5273,50.5045 62.5273,50.3379 60.5,50.5C 60.5,50.1667 60.5,49.8333 60.5,49.5C 61.5,48.8333 62.5,48.1667 63.5,47.5 Z"/></g>
<g><path style="opacity:1" fill="#88b456" d="M 79.5,48.5 C 81.1765,49.1834 81.8432,50.5168 81.5,52.5C 79.115,52.6033 76.7817,52.6033 74.5,52.5C 75.8333,51.8333 76.8333,50.8333 77.5,49.5C 77.8417,48.6618 78.5084,48.3284 79.5,48.5 Z"/></g>
<g><path style="opacity:0.943" fill="#90ac68" d="M 52.5,51.5 C 52.5,51.1667 52.5,50.8333 52.5,50.5C 52.8333,50.5 53.1667,50.5 53.5,50.5C 55.8333,50.5 58.1667,50.5 60.5,50.5C 62.5273,50.3379 64.5273,50.5045 66.5,51C 67.056,51.3826 67.3893,51.8826 67.5,52.5C 64.8333,52.5 62.1667,52.5 59.5,52.5C 57.3926,51.5318 55.0593,51.1984 52.5,51.5 Z"/></g>
<g><path style="opacity:0.604" fill="#90a96a" d="M 52.5,51.5 C 55.0593,51.1984 57.3926,51.5318 59.5,52.5C 55.3301,52.3331 51.3301,52.9997 47.5,54.5C 47.5,54.1667 47.5,53.8333 47.5,53.5C 49.1667,52.8333 50.8333,52.1667 52.5,51.5 Z"/></g>
<g><path style="opacity:1" fill="#8ab35a" d="M 71.5,51.5 C 72.609,51.5569 73.609,51.8902 74.5,52.5C 76.7817,52.6033 79.115,52.6033 81.5,52.5C 81.5,53.1667 81.8333,53.5 82.5,53.5C 81.5,54.1667 80.5,54.8333 79.5,55.5C 79.44,56.0431 79.1067,56.3764 78.5,56.5C 76.3821,55.0541 74.0488,54.3874 71.5,54.5C 71.5,53.5 71.5,52.5 71.5,51.5 Z"/></g>
<g><path style="opacity:1" fill="#8db067" d="M 78.5,45.5 C 81.4323,46.7997 83.7656,48.7997 85.5,51.5C 84.2223,51.7822 83.2223,52.4489 82.5,53.5C 81.8333,53.5 81.5,53.1667 81.5,52.5C 81.8432,50.5168 81.1765,49.1834 79.5,48.5C 78.8902,47.609 78.5569,46.609 78.5,45.5 Z"/></g>
<g><path style="opacity:1" fill="#8fb059" d="M 46.5,51.5 C 47.3382,51.8417 47.6716,52.5084 47.5,53.5C 47.5,53.8333 47.5,54.1667 47.5,54.5C 44.9302,56.614 42.5968,58.9473 40.5,61.5C 40.5,60.8333 40.5,60.1667 40.5,59.5C 40.9767,56.9748 42.3101,54.9748 44.5,53.5C 45.1667,52.8333 45.8333,52.1667 46.5,51.5 Z"/></g>
<g><path style="opacity:1" fill="#8ab359" d="M 85.5,51.5 C 86.8333,52.1667 87.8333,53.1667 88.5,54.5C 87.6618,54.8417 87.3284,55.5084 87.5,56.5C 83.3601,55.9557 82.6935,56.9557 85.5,59.5C 83.5923,60.4856 82.5923,62.1523 82.5,64.5C 81.3263,63.4863 80.6596,62.153 80.5,60.5C 80.7845,58.5853 80.4511,56.9187 79.5,55.5C 80.5,54.8333 81.5,54.1667 82.5,53.5C 83.2223,52.4489 84.2223,51.7822 85.5,51.5 Z"/></g>
<g><path style="opacity:1" fill="#89b35b" d="M 38.5,49.5 C 39.404,50.209 39.7373,51.209 39.5,52.5C 41.099,52.7678 42.4324,52.4345 43.5,51.5C 44.3382,51.8417 44.6716,52.5084 44.5,53.5C 42.3101,54.9748 40.9767,56.9748 40.5,59.5C 40.44,58.9569 40.1067,58.6236 39.5,58.5C 38.2311,60.1801 36.5644,61.3468 34.5,62C 35.3802,63.3561 35.7135,64.8561 35.5,66.5C 35.7148,68.1788 35.0481,69.1788 33.5,69.5C 33.5,68.1667 33.5,66.8333 33.5,65.5C 33.6106,63.3523 32.944,63.019 31.5,64.5C 30.2801,64.1131 29.6135,63.2798 29.5,62C 30.6094,59.9534 31.2761,57.7867 31.5,55.5C 31.5,54.8333 31.8333,54.5 32.5,54.5C 32.5,54.1667 32.5,53.8333 32.5,53.5C 34.7772,52.5514 36.7772,51.2181 38.5,49.5 Z"/></g>
<g><path style="opacity:1" fill="#88b657" d="M 32.5,54.5 C 34.0682,56.9312 35.5682,56.9312 37,54.5C 37.49,55.7932 37.6567,57.1266 37.5,58.5C 34.4535,58.8174 32.7868,57.4841 32.5,54.5 Z"/></g>
<g><path style="opacity:1" fill="#8aae5d" d="M 71.5,54.5 C 74.0488,54.3874 76.3821,55.0541 78.5,56.5C 79.1067,56.3764 79.44,56.0431 79.5,55.5C 80.4511,56.9187 80.7845,58.5853 80.5,60.5C 79.7638,58.7706 78.4305,57.7706 76.5,57.5C 74.5659,56.8897 72.8993,55.8897 71.5,54.5 Z"/></g>
<g><path style="opacity:1" fill="#88b45b" d="M 87.5,56.5 C 88.5729,58.6531 88.5729,60.6531 87.5,62.5C 86.6715,61.6676 85.8382,62.001 85,63.5C 84.805,62.1807 84.9717,60.8474 85.5,59.5C 82.6935,56.9557 83.3601,55.9557 87.5,56.5 Z"/></g>
<g><path style="opacity:1" fill="#8bb357" d="M 40.5,59.5 C 40.5,60.1667 40.5,60.8333 40.5,61.5C 38.6264,63.082 37.2931,65.082 36.5,67.5C 36.5,66.8333 36.1667,66.5 35.5,66.5C 35.7135,64.8561 35.3802,63.3561 34.5,62C 36.5644,61.3468 38.2311,60.1801 39.5,58.5C 40.1067,58.6236 40.44,58.9569 40.5,59.5 Z"/></g>
<g><path style="opacity:1" fill="#87b557" d="M 85.5,59.5 C 84.9717,60.8474 84.805,62.1807 85,63.5C 85.8382,62.001 86.6715,61.6676 87.5,62.5C 87.5,62.8333 87.5,63.1667 87.5,63.5C 86.8999,64.9002 85.8999,65.9002 84.5,66.5C 83.8333,66.5 83.1667,66.5 82.5,66.5C 82.5,65.8333 82.5,65.1667 82.5,64.5C 82.5923,62.1523 83.5923,60.4856 85.5,59.5 Z"/></g>
<g><path style="opacity:1" fill="#91b464" d="M 63.5,63.5 C 63.5,64.1667 63.5,64.8333 63.5,65.5C 63.1667,65.5 62.8333,65.5 62.5,65.5C 62.6567,64.1266 62.49,62.7932 62,61.5C 60.331,63.1691 59.4977,65.1691 59.5,67.5C 57.9724,66.1979 56.9724,64.5313 56.5,62.5C 56.3486,59.2624 57.6819,56.9291 60.5,55.5C 62.6632,57.6473 63.6632,60.314 63.5,63.5 Z"/></g>
<g><path style="opacity:0.224" fill="#8eab68" d="M 76.5,57.5 C 78.4305,57.7706 79.7638,58.7706 80.5,60.5C 80.6596,62.153 81.3263,63.4863 82.5,64.5C 82.5,65.1667 82.5,65.8333 82.5,66.5C 82.5,66.8333 82.5,67.1667 82.5,67.5C 82.5,68.1667 82.5,68.8333 82.5,69.5C 81.0652,65.2971 79.0652,61.2971 76.5,57.5 Z"/></g>
<g><path style="opacity:1" fill="#8aaf5c" d="M 88.5,54.5 C 91.2565,58.0169 92.9232,62.0169 93.5,66.5C 93.8205,71.6946 93.4872,76.6946 92.5,81.5C 92.6716,80.5084 92.3382,79.8417 91.5,79.5C 91.3893,78.8826 91.056,78.3826 90.5,78C 91.8228,77.1841 92.4894,76.0174 92.5,74.5C 92.5,72.5 92.5,70.5 92.5,68.5C 92.5,68.1667 92.5,67.8333 92.5,67.5C 92.6495,66.448 92.4828,65.448 92,64.5C 90.951,66.1066 89.451,66.7733 87.5,66.5C 87.5,65.5 87.5,64.5 87.5,63.5C 87.5,63.1667 87.5,62.8333 87.5,62.5C 88.5729,60.6531 88.5729,58.6531 87.5,56.5C 87.3284,55.5084 87.6618,54.8417 88.5,54.5 Z"/></g>
<g><path style="opacity:1" fill="#8eb161" d="M 31.5,55.5 C 31.2761,57.7867 30.6094,59.9534 29.5,62C 29.6135,63.2798 30.2801,64.1131 31.5,64.5C 32.944,63.019 33.6106,63.3523 33.5,65.5C 31.7028,66.7298 29.7028,67.3964 27.5,67.5C 27.1667,67.5 26.8333,67.5 26.5,67.5C 26.5858,66.5041 26.2524,65.6708 25.5,65C 27.4114,61.7453 29.4114,58.5786 31.5,55.5 Z"/></g>
<g><path style="opacity:0.004" fill="#000000" d="M 97.5,64.5 C 98.8333,65.1667 98.8333,65.1667 97.5,64.5 Z"/></g>
<g><path style="opacity:1" fill="#89b455" d="M 62.5,65.5 C 61.8902,66.391 61.5569,67.391 61.5,68.5C 60.8333,68.1667 60.1667,67.8333 59.5,67.5C 59.4977,65.1691 60.331,63.1691 62,61.5C 62.49,62.7932 62.6567,64.1266 62.5,65.5 Z"/></g>
<g><path style="opacity:1" fill="#8cb65b" d="M 87.5,63.5 C 87.5,64.5 87.5,65.5 87.5,66.5C 89.451,66.7733 90.951,66.1066 92,64.5C 92.4828,65.448 92.6495,66.448 92.5,67.5C 89.9592,67.8499 87.6258,67.8499 85.5,67.5C 84.8333,67.5 84.5,67.1667 84.5,66.5C 85.8999,65.9002 86.8999,64.9002 87.5,63.5 Z"/></g>
<g><path style="opacity:1" fill="#87b55a" d="M 35.5,66.5 C 36.1667,66.5 36.5,66.8333 36.5,67.5C 36.5,70.1667 36.5,72.8333 36.5,75.5C 35.8999,76.9002 34.8999,77.9002 33.5,78.5C 33.5,76.5 33.5,74.5 33.5,72.5C 33.5,71.5 33.5,70.5 33.5,69.5C 35.0481,69.1788 35.7148,68.1788 35.5,66.5 Z"/></g>
<g><path style="opacity:0.004" fill="#000000" d="M -0.5,68.5 C 0.833333,69.1667 0.833333,69.1667 -0.5,68.5 Z"/></g>
<g><path style="opacity:1" fill="#8ab456" d="M 33.5,65.5 C 33.5,66.8333 33.5,68.1667 33.5,69.5C 33.5,70.5 33.5,71.5 33.5,72.5C 32.2921,73.2341 30.9587,73.5674 29.5,73.5C 29.6602,71.8008 29.4935,70.1341 29,68.5C 28.6174,69.056 28.1174,69.3893 27.5,69.5C 27.5,68.8333 27.5,68.1667 27.5,67.5C 29.7028,67.3964 31.7028,66.7298 33.5,65.5 Z"/></g>
<g><path style="opacity:1" fill="#87b256" d="M 85.5,67.5 C 87.6258,67.8499 89.9592,67.8499 92.5,67.5C 92.5,67.8333 92.5,68.1667 92.5,68.5C 91.4739,69.853 90.1405,70.853 88.5,71.5C 88.1959,69.2043 87.1959,68.871 85.5,70.5C 85.5,69.5 85.5,68.5 85.5,67.5 Z"/></g>
<g><path style="opacity:1" fill="#88b554" d="M 29.5,73.5 C 29.5,75.1667 29.5,76.8333 29.5,78.5C 28.8333,78.5 28.5,78.8333 28.5,79.5C 27.5206,76.3752 27.1872,73.0419 27.5,69.5C 28.1174,69.3893 28.6174,69.056 29,68.5C 29.4935,70.1341 29.6602,71.8008 29.5,73.5 Z"/></g>
<g><path style="opacity:1" fill="#8eb45d" d="M 56.5,62.5 C 56.9724,64.5313 57.9724,66.1979 59.5,67.5C 57.876,70.9314 56.876,74.5981 56.5,78.5C 56.1667,78.5 55.8333,78.5 55.5,78.5C 55.815,74.6286 55.4816,70.9619 54.5,67.5C 55.0241,65.6943 55.6908,64.0276 56.5,62.5 Z"/></g>
<g><path style="opacity:1" fill="#86b655" d="M 59.5,67.5 C 60.1667,67.8333 60.8333,68.1667 61.5,68.5C 61.5,69.8333 61.5,71.1667 61.5,72.5C 60.7148,74.3736 60.0482,76.3736 59.5,78.5C 58.5,78.5 57.5,78.5 56.5,78.5C 56.876,74.5981 57.876,70.9314 59.5,67.5 Z"/></g>
<g><path style="opacity:1" fill="#87b35b" d="M 82.5,67.5 C 82.5,67.1667 82.5,66.8333 82.5,66.5C 83.1667,66.5 83.8333,66.5 84.5,66.5C 84.5,67.1667 84.8333,67.5 85.5,67.5C 85.5,68.5 85.5,69.5 85.5,70.5C 85.8016,73.0593 85.4682,75.3926 84.5,77.5C 84.6641,74.8127 84.4974,72.146 84,69.5C 83.7216,68.5842 83.2216,67.9175 82.5,67.5 Z"/></g>
<g><path style="opacity:0.004" fill="#000000" d="M 111.5,69.5 C 112.833,70.1667 112.833,70.1667 111.5,69.5 Z"/></g>
<g><path style="opacity:0.004" fill="#000000" d="M 109.5,70.5 C 110.833,71.1667 110.833,71.1667 109.5,70.5 Z"/></g>
<g><path style="opacity:0.367" fill="#86a461" d="M 40.5,61.5 C 36.9813,69.3583 36.648,77.3583 39.5,85.5C 38.8333,85.5 38.1667,85.5 37.5,85.5C 36.5863,82.272 36.2529,78.9387 36.5,75.5C 36.5,72.8333 36.5,70.1667 36.5,67.5C 37.2931,65.082 38.6264,63.082 40.5,61.5 Z"/></g>
<g><path style="opacity:1" fill="#8ab458" d="M 88.5,71.5 C 88.2668,74.9536 89.6001,75.9536 92.5,74.5C 92.4894,76.0174 91.8228,77.1841 90.5,78C 91.056,78.3826 91.3893,78.8826 91.5,79.5C 90.8333,79.5 90.1667,79.5 89.5,79.5C 89.631,78.7611 89.4643,78.0944 89,77.5C 87.1962,79.9815 85.6962,79.9815 84.5,77.5C 85.4682,75.3926 85.8016,73.0593 85.5,70.5C 87.1959,68.871 88.1959,69.2043 88.5,71.5 Z"/></g>
<g><path style="opacity:1" fill="#88b657" d="M 92.5,68.5 C 92.5,70.5 92.5,72.5 92.5,74.5C 89.6001,75.9536 88.2668,74.9536 88.5,71.5C 90.1405,70.853 91.4739,69.853 92.5,68.5 Z"/></g>
<g><path style="opacity:1" fill="#89b35b" d="M 33.5,72.5 C 33.5,74.5 33.5,76.5 33.5,78.5C 33.5,79.8333 33.5,81.1667 33.5,82.5C 32.8333,82.5 32.1667,82.5 31.5,82.5C 31.7709,80.6203 31.1042,79.287 29.5,78.5C 29.5,76.8333 29.5,75.1667 29.5,73.5C 30.9587,73.5674 32.2921,73.2341 33.5,72.5 Z"/></g>
<g><path style="opacity:1" fill="#8bb25f" d="M 62.5,65.5 C 62.8333,65.5 63.1667,65.5 63.5,65.5C 63.6287,67.2161 63.962,68.8828 64.5,70.5C 63.6981,71.9516 63.1981,73.6183 63,75.5C 61.9614,74.7562 61.4614,73.7562 61.5,72.5C 61.5,71.1667 61.5,69.8333 61.5,68.5C 61.5569,67.391 61.8902,66.391 62.5,65.5 Z"/></g>
<g><path style="opacity:0.004" fill="#000000" d="M 114.5,72.5 C 115.833,73.1667 115.833,73.1667 114.5,72.5 Z"/></g>
<g><path style="opacity:0.992" fill="#8fae6d" d="M 63.5,63.5 C 64.8639,66.7724 65.8639,70.2724 66.5,74C 66.4753,75.876 65.8086,77.376 64.5,78.5C 64.5,75.8333 64.5,73.1667 64.5,70.5C 63.962,68.8828 63.6287,67.2161 63.5,65.5C 63.5,64.8333 63.5,64.1667 63.5,63.5 Z"/></g>
<g><path style="opacity:0.678" fill="#809e5d" d="M 93.5,66.5 C 94.1641,68.9779 94.4975,71.6445 94.5,74.5C 94.6633,78.7773 93.9967,82.7773 92.5,86.5C 92.5,86.1667 92.5,85.8333 92.5,85.5C 92.5,84.1667 92.5,82.8333 92.5,81.5C 93.4872,76.6946 93.8205,71.6946 93.5,66.5 Z"/></g>
<g><path style="opacity:0.998" fill="#8eb05b" d="M 26.5,67.5 C 26.8333,67.5 27.1667,67.5 27.5,67.5C 27.5,68.1667 27.5,68.8333 27.5,69.5C 27.1872,73.0419 27.5206,76.3752 28.5,79.5C 29.4345,80.5676 29.7678,81.901 29.5,83.5C 28.391,83.4431 27.391,83.1098 26.5,82.5C 25.2001,77.4001 25.2001,72.4001 26.5,67.5 Z"/></g>
<g><path style="opacity:0.898" fill="#99b370" d="M 54.5,67.5 C 55.4816,70.9619 55.815,74.6286 55.5,78.5C 54.3349,77.5039 53.6682,76.1705 53.5,74.5C 54.2234,72.2178 54.5567,69.8845 54.5,67.5 Z"/></g>
<g><path style="opacity:1" fill="#8bb45a" d="M 64.5,70.5 C 64.5,73.1667 64.5,75.8333 64.5,78.5C 62.8333,78.5 61.1667,78.5 59.5,78.5C 60.0482,76.3736 60.7148,74.3736 61.5,72.5C 61.4614,73.7562 61.9614,74.7562 63,75.5C 63.1981,73.6183 63.6981,71.9516 64.5,70.5 Z"/></g>
<g><path style="opacity:0.004" fill="#000000" d="M 101.5,74.5 C 102.833,75.1667 102.833,75.1667 101.5,74.5 Z"/></g>
<g><path style="opacity:0.004" fill="#000000" d="M 2.5,77.5 C 3.83333,78.1667 3.83333,78.1667 2.5,77.5 Z"/></g>
<g><path style="opacity:1" fill="#97b470" d="M 55.5,78.5 C 55.8333,78.5 56.1667,78.5 56.5,78.5C 57.5,78.5 58.5,78.5 59.5,78.5C 61.1667,78.5 62.8333,78.5 64.5,78.5C 63.5081,80.0265 62.0081,80.6932 60,80.5C 57.9919,80.6932 56.4919,80.0265 55.5,78.5 Z"/></g>
<g><path style="opacity:0.004" fill="#000000" d="M 16.5,79.5 C 17.8333,80.1667 17.8333,80.1667 16.5,79.5 Z"/></g>
<g><path style="opacity:1" fill="#88b655" d="M 89.5,79.5 C 90.1667,79.5 90.8333,79.5 91.5,79.5C 92.3382,79.8417 92.6716,80.5084 92.5,81.5C 92.5,82.8333 92.5,84.1667 92.5,85.5C 90.461,84.089 89.461,82.089 89.5,79.5 Z"/></g>
<g><path style="opacity:1" fill="#8bb360" d="M 82.5,67.5 C 83.2216,67.9175 83.7216,68.5842 84,69.5C 84.4974,72.146 84.6641,74.8127 84.5,77.5C 85.6962,79.9815 87.1962,79.9815 89,77.5C 89.4643,78.0944 89.631,78.7611 89.5,79.5C 89.461,82.089 90.461,84.089 92.5,85.5C 92.5,85.8333 92.5,86.1667 92.5,86.5C 91.1001,87.0998 90.1001,88.0998 89.5,89.5C 89.8678,86.9442 89.0345,84.9442 87,83.5C 85.9701,83.8361 85.4701,84.5028 85.5,85.5C 84.8333,86.1667 84.1667,86.8333 83.5,87.5C 83.7373,86.209 83.404,85.209 82.5,84.5C 82.5,83.1667 82.5,81.8333 82.5,80.5C 82.5,76.8333 82.5,73.1667 82.5,69.5C 82.5,68.8333 82.5,68.1667 82.5,67.5 Z"/></g>
<g><path style="opacity:1" fill="#88b555" d="M 89.5,89.5 C 87.1667,89.1667 85.8333,87.8333 85.5,85.5C 85.4701,84.5028 85.9701,83.8361 87,83.5C 89.0345,84.9442 89.8678,86.9442 89.5,89.5 Z"/></g>
<g><path style="opacity:0.004" fill="#000000" d="M 107.5,83.5 C 108.833,84.1667 108.833,84.1667 107.5,83.5 Z"/></g>
<g><path style="opacity:1" fill="#88b457" d="M 36.5,75.5 C 36.2529,78.9387 36.5863,82.272 37.5,85.5C 36.0413,85.4326 34.7079,85.7659 33.5,86.5C 33.5,85.1667 33.5,83.8333 33.5,82.5C 33.5,81.1667 33.5,79.8333 33.5,78.5C 34.8999,77.9002 35.8999,76.9002 36.5,75.5 Z"/></g>
<g><path style="opacity:1" fill="#87b558" d="M 28.5,79.5 C 28.5,78.8333 28.8333,78.5 29.5,78.5C 31.1042,79.287 31.7709,80.6203 31.5,82.5C 32.8333,83.5 32.8333,84.5 31.5,85.5C 31.1667,86.8333 30.8333,88.1667 30.5,89.5C 29.5386,87.7354 29.2053,85.7354 29.5,83.5C 29.7678,81.901 29.4345,80.5676 28.5,79.5 Z"/></g>
<g><path style="opacity:1" fill="#8bb355" d="M 31.5,85.5 C 32.6118,87.5994 33.2785,89.9327 33.5,92.5C 34.5,92.5 35.5,92.5 36.5,92.5C 37.1667,93.8333 37.8333,95.1667 38.5,96.5C 38.5,96.8333 38.5,97.1667 38.5,97.5C 37.8333,97.5 37.5,97.8333 37.5,98.5C 36.1667,97.5 34.8333,96.5 33.5,95.5C 32.4861,93.4261 31.4861,91.4261 30.5,89.5C 30.8333,88.1667 31.1667,86.8333 31.5,85.5 Z"/></g>
<g><path style="opacity:1" fill="#88b55b" d="M 85.5,85.5 C 85.8333,87.8333 87.1667,89.1667 89.5,89.5C 88.2702,91.2972 87.6036,93.2972 87.5,95.5C 85.9724,94.1979 84.9724,92.5313 84.5,90.5C 83.8902,89.609 83.5569,88.609 83.5,87.5C 84.1667,86.8333 84.8333,86.1667 85.5,85.5 Z"/></g>
<g><path style="opacity:1" fill="#8ab459" d="M 37.5,85.5 C 38.1667,85.5 38.8333,85.5 39.5,85.5C 40.6737,86.5137 41.3404,87.847 41.5,89.5C 41.5,90.1667 41.5,90.8333 41.5,91.5C 40.241,92.9791 39.241,94.6458 38.5,96.5C 37.8333,95.1667 37.1667,93.8333 36.5,92.5C 35.9285,91.0267 35.9285,89.36 36.5,87.5C 35.209,87.7373 34.209,87.404 33.5,86.5C 34.7079,85.7659 36.0413,85.4326 37.5,85.5 Z"/></g>
<g><path style="opacity:0.663" fill="#96ae6d" d="M 92.5,86.5 C 91.5903,89.9922 89.9236,92.9922 87.5,95.5C 87.6036,93.2972 88.2702,91.2972 89.5,89.5C 90.1001,88.0998 91.1001,87.0998 92.5,86.5 Z"/></g>
<g><path style="opacity:1" fill="#8ab35b" d="M 31.5,82.5 C 32.1667,82.5 32.8333,82.5 33.5,82.5C 33.5,83.8333 33.5,85.1667 33.5,86.5C 34.209,87.404 35.209,87.7373 36.5,87.5C 35.9285,89.36 35.9285,91.0267 36.5,92.5C 35.5,92.5 34.5,92.5 33.5,92.5C 33.2785,89.9327 32.6118,87.5994 31.5,85.5C 32.8333,84.5 32.8333,83.5 31.5,82.5 Z"/></g>
<g><path style="opacity:0.004" fill="#000000" d="M 105.5,87.5 C 106.833,88.1667 106.833,88.1667 105.5,87.5 Z"/></g>
<g><path style="opacity:1" fill="#89b455" d="M 82.5,84.5 C 83.404,85.209 83.7373,86.209 83.5,87.5C 83.5569,88.609 83.8902,89.609 84.5,90.5C 82.9731,90.427 81.9731,91.0937 81.5,92.5C 80.609,93.1098 79.609,93.4431 78.5,93.5C 77.8333,93.5 77.5,93.1667 77.5,92.5C 79.6943,90.1003 81.361,87.4336 82.5,84.5 Z"/></g>
<g><path style="opacity:1" fill="#93b467" d="M 26.5,82.5 C 27.391,83.1098 28.391,83.4431 29.5,83.5C 29.2053,85.7354 29.5386,87.7354 30.5,89.5C 31.4861,91.4261 32.4861,93.4261 33.5,95.5C 33.1667,95.5 32.8333,95.5 32.5,95.5C 29.1802,91.8557 27.1802,87.5224 26.5,82.5 Z"/></g>
<g><path style="opacity:0.749" fill="#90ad66" d="M 82.5,80.5 C 82.5,81.8333 82.5,83.1667 82.5,84.5C 81.361,87.4336 79.6943,90.1003 77.5,92.5C 76.609,93.1098 75.609,93.4431 74.5,93.5C 77.9464,89.5995 80.6131,85.2661 82.5,80.5 Z"/></g>
<g><path style="opacity:1" fill="#8db35c" d="M 84.5,90.5 C 84.9724,92.5313 85.9724,94.1979 87.5,95.5C 87.1667,96.5 86.5,97.1667 85.5,97.5C 84.8333,97.5 84.1667,97.5 83.5,97.5C 82.4975,95.9891 81.8308,94.3224 81.5,92.5C 81.9731,91.0937 82.9731,90.427 84.5,90.5 Z"/></g>
<g><path style="opacity:1" fill="#88b55d" d="M 41.5,91.5 C 45.4068,94.1825 44.7402,95.6825 39.5,96C 40.3805,96.7083 41.0472,97.5416 41.5,98.5C 40.391,98.4431 39.391,98.1098 38.5,97.5C 38.5,97.1667 38.5,96.8333 38.5,96.5C 39.241,94.6458 40.241,92.9791 41.5,91.5 Z"/></g>
<g><path style="opacity:0.004" fill="#000000" d="M 3.5,93.5 C 4.83333,94.1667 4.83333,94.1667 3.5,93.5 Z"/></g>
<g><path style="opacity:1" fill="#8bb25d" d="M 77.5,92.5 C 77.5,93.1667 77.8333,93.5 78.5,93.5C 78.8333,94.8333 79.1667,96.1667 79.5,97.5C 78.4324,98.4345 77.099,98.7678 75.5,98.5C 74.4019,97.603 74.4019,96.7697 75.5,96C 73.8659,95.5065 72.1992,95.3398 70.5,95.5C 71.5137,94.3263 72.847,93.6596 74.5,93.5C 75.609,93.4431 76.609,93.1098 77.5,92.5 Z"/></g>
<g><path style="opacity:0.004" fill="#000000" d="M 17.5,95.5 C 18.8333,96.1667 18.8333,96.1667 17.5,95.5 Z"/></g>
<g><path style="opacity:1" fill="#86b458" d="M 81.5,92.5 C 81.8308,94.3224 82.4975,95.9891 83.5,97.5C 83.1667,98.5 82.5,99.1667 81.5,99.5C 81.5,98.1667 80.8333,97.5 79.5,97.5C 79.1667,96.1667 78.8333,94.8333 78.5,93.5C 79.609,93.4431 80.609,93.1098 81.5,92.5 Z"/></g>
<g><path style="opacity:0.004" fill="#000000" d="M 9.5,96.5 C 10.8333,97.1667 10.8333,97.1667 9.5,96.5 Z"/></g>
<g><path style="opacity:1" fill="#89ae5f" d="M 41.5,89.5 C 45.5868,93.7091 50.5868,96.0425 56.5,96.5C 56.0377,97.8799 55.0377,98.5466 53.5,98.5C 52.1331,97.7745 50.7997,97.1079 49.5,96.5C 48.1667,96.5 46.8333,96.5 45.5,96.5C 45.3915,98.5138 46.0582,100.18 47.5,101.5C 47.5,101.833 47.5,102.167 47.5,102.5C 45.5648,103.15 43.5648,103.483 41.5,103.5C 41.1667,102.833 40.8333,102.167 40.5,101.5C 45.4704,102.509 45.8038,101.509 41.5,98.5C 41.0472,97.5416 40.3805,96.7083 39.5,96C 44.7402,95.6825 45.4068,94.1825 41.5,91.5C 41.5,90.8333 41.5,90.1667 41.5,89.5 Z"/></g>
<g><path style="opacity:1" fill="#8bb358" d="M 70.5,95.5 C 72.1992,95.3398 73.8659,95.5065 75.5,96C 74.4019,96.7697 74.4019,97.603 75.5,98.5C 74.609,99.1098 73.609,99.4431 72.5,99.5C 72.1193,98.0689 71.1193,97.2355 69.5,97C 70.056,96.6174 70.3893,96.1174 70.5,95.5 Z"/></g>
<g><path style="opacity:1" fill="#8cb05f" d="M 70.5,95.5 C 70.3893,96.1174 70.056,96.6174 69.5,97C 71.1193,97.2355 72.1193,98.0689 72.5,99.5C 72.1667,99.5 71.8333,99.5 71.5,99.5C 68.7342,100.232 66.0675,100.232 63.5,99.5C 63.5,98.5 63.5,97.5 63.5,96.5C 65.9029,96.552 68.2362,96.2186 70.5,95.5 Z"/></g>
<g><path style="opacity:0.329" fill="#91a96c" d="M 32.5,95.5 C 32.8333,95.5 33.1667,95.5 33.5,95.5C 34.8333,96.5 36.1667,97.5 37.5,98.5C 38.1667,99.8333 39.1667,100.833 40.5,101.5C 40.8333,102.167 41.1667,102.833 41.5,103.5C 37.8998,101.57 34.8998,98.9031 32.5,95.5 Z"/></g>
<g><path style="opacity:1" fill="#8bb551" d="M 38.5,97.5 C 39.391,98.1098 40.391,98.4431 41.5,98.5C 45.8038,101.509 45.4704,102.509 40.5,101.5C 39.1667,100.833 38.1667,99.8333 37.5,98.5C 37.5,97.8333 37.8333,97.5 38.5,97.5 Z"/></g>
<g><path style="opacity:1" fill="#88b555" d="M 49.5,96.5 C 49.5,97.5 49.5,98.5 49.5,99.5C 49.5,100.167 49.5,100.833 49.5,101.5C 48.8333,101.5 48.1667,101.5 47.5,101.5C 46.0582,100.18 45.3915,98.5138 45.5,96.5C 46.8333,96.5 48.1667,96.5 49.5,96.5 Z"/></g>
<g><path style="opacity:1" fill="#8cb25e" d="M 49.5,96.5 C 50.7997,97.1079 52.1331,97.7745 53.5,98.5C 55.0377,98.5466 56.0377,97.8799 56.5,96.5C 58.3792,97.3414 60.3792,97.6747 62.5,97.5C 61.8902,98.391 61.5569,99.391 61.5,100.5C 60.1667,100.5 58.8333,100.5 57.5,100.5C 55.0521,99.5269 52.3854,99.1936 49.5,99.5C 49.5,98.5 49.5,97.5 49.5,96.5 Z"/></g>
<g><path style="opacity:0.004" fill="#000000" d="M 12.5,99.5 C 13.8333,100.167 13.8333,100.167 12.5,99.5 Z"/></g>
<g><path style="opacity:1" fill="#87b555" d="M 79.5,97.5 C 80.8333,97.5 81.5,98.1667 81.5,99.5C 80.3915,100.29 79.0581,100.79 77.5,101C 77.8333,101.333 78.1667,101.667 78.5,102C 76.8659,102.494 75.1992,102.66 73.5,102.5C 72.3915,101.71 71.0581,101.21 69.5,101C 70.4158,100.722 71.0825,100.222 71.5,99.5C 71.8333,99.5 72.1667,99.5 72.5,99.5C 73.609,99.4431 74.609,99.1098 75.5,98.5C 77.099,98.7678 78.4324,98.4345 79.5,97.5 Z"/></g>
<g><path style="opacity:1" fill="#87b558" d="M 49.5,99.5 C 52.3854,99.1936 55.0521,99.5269 57.5,100.5C 57.5,101.167 57.1667,101.5 56.5,101.5C 54.1667,101.5 51.8333,101.5 49.5,101.5C 49.5,100.833 49.5,100.167 49.5,99.5 Z"/></g>
<g><path style="opacity:0.004" fill="#000000" d="M -0.5,101.5 C 0.833333,102.167 0.833333,102.167 -0.5,101.5 Z"/></g>
<g><path style="opacity:0.004" fill="#000000" d="M 2.5,101.5 C 3.83333,102.167 3.83333,102.167 2.5,101.5 Z"/></g>
<g><path style="opacity:1" fill="#8bb259" d="M 47.5,102.5 C 47.5,102.167 47.5,101.833 47.5,101.5C 48.1667,101.5 48.8333,101.5 49.5,101.5C 51.8333,101.5 54.1667,101.5 56.5,101.5C 55.7375,102.268 54.7375,102.768 53.5,103C 54.2524,103.671 54.5858,104.504 54.5,105.5C 54.5,105.833 54.5,106.167 54.5,106.5C 52.5,106.5 50.5,106.5 48.5,106.5C 48.7678,104.901 48.4345,103.568 47.5,102.5 Z"/></g>
<g><path style="opacity:1" fill="#89b45a" d="M 63.5,99.5 C 66.0675,100.232 68.7342,100.232 71.5,99.5C 71.0825,100.222 70.4158,100.722 69.5,101C 71.0581,101.21 72.3915,101.71 73.5,102.5C 73.2671,104.062 72.6005,105.395 71.5,106.5C 70.8333,106.5 70.1667,106.5 69.5,106.5C 69.8039,105.85 70.1373,105.183 70.5,104.5C 68.5101,103.502 66.5101,102.502 64.5,101.5C 63.7025,101.043 63.3691,100.376 63.5,99.5 Z"/></g>
<g><path style="opacity:1" fill="#93b46b" d="M 47.5,102.5 C 48.4345,103.568 48.7678,104.901 48.5,106.5C 50.5,106.5 52.5,106.5 54.5,106.5C 56.6074,107.468 58.9407,107.802 61.5,107.5C 61.5,107.833 61.5,108.167 61.5,108.5C 54.266,109.598 47.5993,107.931 41.5,103.5C 43.5648,103.483 45.5648,103.15 47.5,102.5 Z"/></g>
<g><path style="opacity:1" fill="#88b459" d="M 61.5,101.5 C 63.404,103.322 65.404,104.988 67.5,106.5C 65.4352,106.517 63.4352,106.85 61.5,107.5C 58.9407,107.802 56.6074,107.468 54.5,106.5C 54.5,106.167 54.5,105.833 54.5,105.5C 56.6805,103.909 59.0139,102.576 61.5,101.5 Z"/></g>
<g><path style="opacity:1" fill="#94b468" d="M 83.5,97.5 C 84.1667,97.5 84.8333,97.5 85.5,97.5C 81.8851,102.111 77.2184,105.111 71.5,106.5C 72.6005,105.395 73.2671,104.062 73.5,102.5C 75.1992,102.66 76.8659,102.494 78.5,102C 78.1667,101.667 77.8333,101.333 77.5,101C 79.0581,100.79 80.3915,100.29 81.5,99.5C 82.5,99.1667 83.1667,98.5 83.5,97.5 Z"/></g>
<g><path style="opacity:1" fill="#89b35b" d="M 57.5,100.5 C 58.8333,100.5 60.1667,100.5 61.5,100.5C 61.5,100.833 61.5,101.167 61.5,101.5C 59.0139,102.576 56.6805,103.909 54.5,105.5C 54.5858,104.504 54.2524,103.671 53.5,103C 54.7375,102.768 55.7375,102.268 56.5,101.5C 57.1667,101.5 57.5,101.167 57.5,100.5 Z"/></g>
<g><path style="opacity:1" fill="#8ab656" d="M 63.5,96.5 C 63.5,97.5 63.5,98.5 63.5,99.5C 63.3691,100.376 63.7025,101.043 64.5,101.5C 66.5101,102.502 68.5101,103.502 70.5,104.5C 70.1373,105.183 69.8039,105.85 69.5,106.5C 68.8333,106.5 68.1667,106.5 67.5,106.5C 65.404,104.988 63.404,103.322 61.5,101.5C 61.5,101.167 61.5,100.833 61.5,100.5C 61.5569,99.391 61.8902,98.391 62.5,97.5C 62.5,96.8333 62.8333,96.5 63.5,96.5 Z"/></g>
<g><path style="opacity:0.004" fill="#000000" d="M 112.5,106.5 C 113.833,107.167 113.833,107.167 112.5,106.5 Z"/></g>
<g><path style="opacity:0.004" fill="#000000" d="M 32.5,107.5 C 33.8333,108.167 33.8333,108.167 32.5,107.5 Z"/></g>
<g><path style="opacity:0.729" fill="#95b06e" d="M 67.5,106.5 C 68.1667,106.5 68.8333,106.5 69.5,106.5C 70.1667,106.5 70.8333,106.5 71.5,106.5C 71.0825,107.222 70.4158,107.722 69.5,108C 66.854,108.497 64.1873,108.664 61.5,108.5C 61.5,108.167 61.5,107.833 61.5,107.5C 63.4352,106.85 65.4352,106.517 67.5,106.5 Z"/></g>
<g><path style="opacity:0.004" fill="#000000" d="M 27.5,108.5 C 28.8333,109.167 28.8333,109.167 27.5,108.5 Z"/></g>
<g><path style="opacity:0.004" fill="#000000" d="M 5.5,113.5 C 6.83333,114.167 6.83333,114.167 5.5,113.5 Z"/></g>
<g><path style="opacity:0.004" fill="#000000" d="M 47.5,113.5 C 48.8333,114.167 48.8333,114.167 47.5,113.5 Z"/></g>
<g><path style="opacity:0.004" fill="#fe0000" d="M 99.5,114.5 C 100.833,115.167 100.833,115.167 99.5,114.5 Z"/></g>
<g><path style="opacity:0.004" fill="#000000" d="M 26.5,116.5 C 27.8333,117.167 27.8333,117.167 26.5,116.5 Z"/></g>
<g><path style="opacity:0.004" fill="#000000" d="M 29.5,116.5 C 30.8333,117.167 30.8333,117.167 29.5,116.5 Z"/></g>
<g><path style="opacity:0.004" fill="#000000" d="M 102.5,117.5 C 103.833,118.167 103.833,118.167 102.5,117.5 Z"/></g>
<g><path style="opacity:0.004" fill="#000000" d="M 97.5,118.5 C 98.8333,119.167 98.8333,119.167 97.5,118.5 Z"/></g>
<g><path style="opacity:0.004" fill="#000000" d="M 56.5,119.5 C 57.8333,120.167 57.8333,120.167 56.5,119.5 Z"/></g>
<g><path style="opacity:0.004" fill="#000000" d="M 18.5,123.5 C 19.8333,124.167 19.8333,124.167 18.5,123.5 Z"/></g>
<g><path style="opacity:0.004" fill="#000000" d="M 36.5,126.5 C 37.8333,127.167 37.8333,127.167 36.5,126.5 Z"/></g>
<g><path style="opacity:0.004" fill="#000000" d="M 115.5,130.5 C 116.833,131.167 116.833,131.167 115.5,130.5 Z"/></g>
<g><path style="opacity:0.004" fill="#000000" d="M 98.5,131.5 C 99.8333,132.167 99.8333,132.167 98.5,131.5 Z"/></g>
<g><path style="opacity:0.004" fill="#000000" d="M 57.5,132.5 C 58.8333,133.167 58.8333,133.167 57.5,132.5 Z"/></g>
<g><path style="opacity:0.004" fill="#000000" d="M 66.5,132.5 C 67.8333,133.167 67.8333,133.167 66.5,132.5 Z"/></g>
<g><path style="opacity:0.004" fill="#000000" d="M 87.5,132.5 C 88.8333,133.167 88.8333,133.167 87.5,132.5 Z"/></g>
</svg>
