<?xml version="1.0" encoding="UTF-8"?>
<!-- Generator: visioncortex VTracer 0.6.4 -->
<svg version="1.1" xmlns="http://www.w3.org/2000/svg" width="119" height="135">
<path d="M0 0 C1.451162 -0.036738 1.451162 -0.036738 2.931641 -0.074219 C3.86041 -0.078086 4.78918 -0.081953 5.746094 -0.085938 C7.023112 -0.098264 7.023112 -0.098264 8.325928 -0.11084 C10.5625 0.375 10.5625 0.375 12.383057 2.231934 C13.5625 4.375 13.5625 4.375 13.25 7.125 C13.023125 7.8675 12.79625 8.61 12.5625 9.375 C10.5825 9.045 8.6025 8.715 6.5625 8.375 C6.5625 10.025 6.5625 11.675 6.5625 13.375 C7.92375 13.591563 7.92375 13.591563 9.3125 13.8125 C11.77727 14.239095 14.150971 14.725742 16.5625 15.375 C16.5625 16.035 16.5625 16.695 16.5625 17.375 C17.141289 17.643125 17.720078 17.91125 18.316406 18.1875 C27.118255 22.840999 31.490658 30.159474 34.5625 39.375 C35.412322 51.648664 34.610311 60.780672 26.5625 70.625 C19.307346 78.165135 10.915355 82.121513 0.441406 82.476562 C-10.41728 82.093488 -19.355054 78.372605 -26.867188 70.40625 C-31.391859 64.553442 -34.591675 57.726135 -34.535156 50.265625 C-34.531934 49.511523 -34.528711 48.757422 -34.525391 47.980469 C-34.517012 47.203164 -34.508633 46.425859 -34.5 45.625 C-34.495488 44.832227 -34.490977 44.039453 -34.486328 43.222656 C-34.474586 41.273405 -34.456651 39.324193 -34.4375 37.375 C-33.7775 37.375 -33.1175 37.375 -32.4375 37.375 C-32.416875 36.570625 -32.39625 35.76625 -32.375 34.9375 C-30.181604 26.602596 -23.770208 21.449657 -16.867188 16.785156 C-13.336251 14.73585 -10.552514 13.375 -6.4375 13.375 C-6.4375 11.725 -6.4375 10.075 -6.4375 8.375 C-8.7475 8.375 -11.0575 8.375 -13.4375 8.375 C-12.22597 -0.913394 -8.251565 0.010951 0 0 Z M-18.4375 33.375 C-22.561425 39.413604 -23.167771 45.185432 -22.4375 52.375 C-20.761455 58.992985 -18.411963 63.72394 -12.4375 67.375 C-5.486677 70.490044 1.141083 71.163695 8.5625 69.375 C15.020274 66.816052 18.564881 62.524622 21.5625 56.375 C23.745487 49.82604 23.306826 42.402767 20.535156 36.085938 C17.739233 31.167807 12.983689 27.047207 7.5625 25.375 C-3.258753 24.310614 -10.975612 24.904749 -18.4375 33.375 Z " fill="#8BB15C" transform="translate(60.4375,27.625)"/>
<path d="M0 0 C0.99 0.33 1.98 0.66 3 1 C3.924721 3.407877 4.623913 5.639625 5.25 8.125 C5.435625 8.777266 5.62125 9.429531 5.8125 10.101562 C7.018528 14.706396 7.084641 18.372969 6 23 C4 25 4 25 0.5625 25.375 C-3 25 -3 25 -4.730469 23.265625 C-7.692538 17.979471 -5.106472 10.956212 -3.5625 5.4375 C-2.816406 2.933594 -2.816406 2.933594 -2 1 C-1.34 0.67 -0.68 0.34 0 0 Z " fill="#8FB462" transform="translate(60,56)"/>
<path d="" fill="#000000" transform="translate(0,0)"/>
<path d="" fill="#000000" transform="translate(0,0)"/>
<path d="" fill="#000000" transform="translate(0,0)"/>
<path d="" fill="#000000" transform="translate(0,0)"/>
<path d="" fill="#000000" transform="translate(0,0)"/>
<path d="" fill="#000000" transform="translate(0,0)"/>
<path d="" fill="#000000" transform="translate(0,0)"/>
<path d="" fill="#000000" transform="translate(0,0)"/>
<path d="" fill="#000000" transform="translate(0,0)"/>
<path d="" fill="#000000" transform="translate(0,0)"/>
<path d="" fill="#000000" transform="translate(0,0)"/>
<path d="" fill="#000000" transform="translate(0,0)"/>
<path d="" fill="#FF0000" transform="translate(0,0)"/>
<path d="" fill="#000000" transform="translate(0,0)"/>
<path d="" fill="#000000" transform="translate(0,0)"/>
<path d="" fill="#000000" transform="translate(0,0)"/>
<path d="" fill="#000000" transform="translate(0,0)"/>
<path d="" fill="#000000" transform="translate(0,0)"/>
<path d="" fill="#000000" transform="translate(0,0)"/>
<path d="" fill="#000000" transform="translate(0,0)"/>
<path d="" fill="#000000" transform="translate(0,0)"/>
<path d="" fill="#000000" transform="translate(0,0)"/>
<path d="" fill="#000000" transform="translate(0,0)"/>
<path d="" fill="#000000" transform="translate(0,0)"/>
<path d="" fill="#000000" transform="translate(0,0)"/>
<path d="" fill="#000000" transform="translate(0,0)"/>
<path d="" fill="#000000" transform="translate(0,0)"/>
<path d="" fill="#000000" transform="translate(0,0)"/>
<path d="" fill="#000000" transform="translate(0,0)"/>
<path d="" fill="#000000" transform="translate(0,0)"/>
<path d="" fill="#000000" transform="translate(0,0)"/>
<path d="" fill="#000000" transform="translate(0,0)"/>
<path d="" fill="#000000" transform="translate(0,0)"/>
<path d="" fill="#000000" transform="translate(0,0)"/>
<path d="" fill="#000000" transform="translate(0,0)"/>
<path d="" fill="#000000" transform="translate(0,0)"/>
<path d="" fill="#000000" transform="translate(0,0)"/>
<path d="" fill="#010000" transform="translate(0,0)"/>
<path d="" fill="#000000" transform="translate(0,0)"/>
<path d="" fill="#000000" transform="translate(0,0)"/>
<path d="" fill="#010000" transform="translate(0,0)"/>
<path d="" fill="#000000" transform="translate(0,0)"/>
<path d="" fill="#000000" transform="translate(0,0)"/>
<path d="" fill="#000000" transform="translate(0,0)"/>
<path d="" fill="#000000" transform="translate(0,0)"/>
<path d="" fill="#000000" transform="translate(0,0)"/>
<path d="" fill="#000000" transform="translate(0,0)"/>
<path d="" fill="#000000" transform="translate(0,0)"/>
<path d="" fill="#000000" transform="translate(0,0)"/>
<path d="" fill="#000000" transform="translate(0,0)"/>
<path d="" fill="#000000" transform="translate(0,0)"/>
<path d="" fill="#000000" transform="translate(0,0)"/>
<path d="" fill="#000000" transform="translate(0,0)"/>
<path d="" fill="#000000" transform="translate(0,0)"/>
<path d="" fill="#000000" transform="translate(0,0)"/>
<path d="" fill="#000000" transform="translate(0,0)"/>
<path d="" fill="#000000" transform="translate(0,0)"/>
<path d="" fill="#000000" transform="translate(0,0)"/>
<path d="" fill="#000000" transform="translate(0,0)"/>
<path d="" fill="#000000" transform="translate(0,0)"/>
<path d="" fill="#000000" transform="translate(0,0)"/>
<path d="" fill="#000000" transform="translate(0,0)"/>
<path d="" fill="#000000" transform="translate(0,0)"/>
<path d="" fill="#000000" transform="translate(0,0)"/>
<path d="" fill="#000000" transform="translate(0,0)"/>
<path d="" fill="#000000" transform="translate(0,0)"/>
<path d="" fill="#000000" transform="translate(0,0)"/>
<path d="" fill="#000000" transform="translate(0,0)"/>
<path d="" fill="#000000" transform="translate(0,0)"/>
<path d="" fill="#000000" transform="translate(0,0)"/>
<path d="" fill="#000000" transform="translate(0,0)"/>
<path d="" fill="#000000" transform="translate(0,0)"/>
<path d="" fill="#000000" transform="translate(0,0)"/>
<path d="" fill="#000000" transform="translate(0,0)"/>
<path d="" fill="#000000" transform="translate(0,0)"/>
<path d="" fill="#000000" transform="translate(0,0)"/>
<path d="" fill="#000000" transform="translate(0,0)"/>
</svg>
